<svg width="22" height="22" viewBox="0 0 22 22" fill="none" xmlns="http://www.w3.org/2000/svg">
<path d="M3.66589 12.8334C3.49242 12.834 3.32235 12.7854 3.17543 12.6932C3.02851 12.601 2.91077 12.4689 2.83589 12.3125C2.76101 12.156 2.73207 11.9815 2.75243 11.8092C2.77278 11.6369 2.8416 11.474 2.95089 11.3393L12.0259 1.98928C12.094 1.9107 12.1867 1.8576 12.289 1.8387C12.3912 1.81979 12.4968 1.8362 12.5885 1.88524C12.6801 1.93427 12.7524 2.01301 12.7934 2.10854C12.8345 2.20407 12.8418 2.3107 12.8142 2.41094L11.0542 7.92928C11.0023 8.06817 10.9849 8.21759 11.0034 8.3647C11.022 8.51181 11.0759 8.65223 11.1606 8.77392C11.2454 8.8956 11.3583 8.99491 11.4899 9.06334C11.6214 9.13176 11.7676 9.16726 11.9159 9.16678H18.3326C18.506 9.16618 18.6761 9.21482 18.823 9.30705C18.9699 9.39927 19.0877 9.53128 19.1626 9.68776C19.2374 9.84423 19.2664 10.0187 19.246 10.191C19.2257 10.3633 19.1568 10.5262 19.0476 10.6609L9.97255 20.0109C9.90448 20.0895 9.81172 20.1426 9.70949 20.1615C9.60726 20.1804 9.50164 20.164 9.40997 20.115C9.3183 20.0659 9.24602 19.9872 9.205 19.8917C9.16397 19.7961 9.15665 19.6895 9.18422 19.5893L10.9442 14.0709C10.9961 13.932 11.0135 13.7826 10.995 13.6355C10.9765 13.4884 10.9225 13.348 10.8378 13.2263C10.7531 13.1046 10.6401 13.0053 10.5086 12.9369C10.377 12.8685 10.2308 12.833 10.0826 12.8334H3.66589Z" stroke="#F2B52B" stroke-width="1.83333" stroke-linecap="round" stroke-linejoin="round"/>
</svg>
