<svg width="20" height="20" viewBox="0 0 20 20" fill="none" xmlns="http://www.w3.org/2000/svg">
<path d="M18.3333 9.99984H16.2667C15.9025 9.99906 15.548 10.1176 15.2576 10.3373C14.9671 10.557 14.7567 10.8658 14.6583 11.2165L12.7 18.1832C12.6874 18.2264 12.6611 18.2645 12.625 18.2915C12.5889 18.3186 12.5451 18.3332 12.5 18.3332C12.4549 18.3332 12.4111 18.3186 12.375 18.2915C12.3389 18.2645 12.3126 18.2264 12.3 18.1832L7.7 1.8165C7.68738 1.77323 7.66106 1.73522 7.625 1.70817C7.58894 1.68112 7.54507 1.6665 7.5 1.6665C7.45492 1.6665 7.41106 1.68112 7.375 1.70817C7.33894 1.73522 7.31262 1.77323 7.3 1.8165L5.34166 8.78317C5.24372 9.13247 5.03448 9.44027 4.74572 9.65985C4.45695 9.87943 4.10443 9.9988 3.74166 9.99984H1.66666" stroke="#FAA628" stroke-width="1.66667" stroke-linecap="round" stroke-linejoin="round"/>
</svg>
